<svg width="22" height="20" viewBox="0 0 22 20" fill="none" xmlns="http://www.w3.org/2000/svg">
<g opacity="0.75">
<path d="M8.90123 13.4568L11.8642 14.4445C11.8642 14.4445 19.2716 12.963 20.2593 12.963C21.2469 12.963 21.2469 13.9506 20.2593 14.9383C19.2716 15.9259 15.8148 18.8889 12.8519 18.8889C9.88889 18.8889 7.91358 17.4074 5.93827 17.4074H1" stroke="#FC8019" stroke-width="1.5" stroke-linecap="round" stroke-linejoin="round"/>
<path d="M1 11.4815C1.98765 10.4938 3.96296 9.01235 5.93827 9.01235C7.91358 9.01235 12.6049 10.9877 13.3457 11.9753C14.0864 12.963 11.8642 14.4444 11.8642 14.4444M6.92593 6.04939V2.09877C6.92593 1.83683 7.02998 1.58561 7.2152 1.40039C7.40042 1.21517 7.65164 1.11111 7.91358 1.11111H19.7654C20.0274 1.11111 20.2786 1.21517 20.4638 1.40039C20.649 1.58561 20.7531 1.83683 20.7531 2.09877V10" stroke="#FC8019" stroke-width="1.5" stroke-linecap="round" stroke-linejoin="round"/>
<path d="M11.3701 1.11111H16.3084V5.55556H11.3701V1.11111Z" stroke="#FC8019" stroke-width="1.5" stroke-linecap="round" stroke-linejoin="round"/>
</g>
</svg>
